HIERARCHY
ROOT root
{
	OFFSET 0.000000 0.000000 0.000000
	CHANNELS 6 Xposition Yposition Zposition Zrotation Yrotation Xrotation
	JOINT lhip
	{
		OFFSET 0.058581 -0.082280 -0.017664
		CHANNELS 3 Zrotation Yrotation Xrotation
		JOINT lknee
		{
			OFFSET 0.043451 -0.386469 0.008037
			CHANNELS 3 Zrotation Yrotation Xrotation
			JOINT lankle
			{
				OFFSET -0.014790 -0.426874 -0.037428
				CHANNELS 3 Zrotation Yrotation Xrotation
				JOINT ltoe
				{
					OFFSET 0.041054 -0.060286 0.122042
					CHANNELS 3 Zrotation Yrotation Xrotation
					End Site
					{
						OFFSET 0.000000 0.000000 0.000000
					}
				}
			}
		}
	}
	JOINT rhip
	{
		OFFSET -0.060310 -0.090513 -0.013543
		CHANNELS 3 Zrotation Yrotation Xrotation
		JOINT rknee
		{
			OFFSET -0.043257 -0.383688 -0.004843
			CHANNELS 3 Zrotation Yrotation Xrotation
			JOINT rankle
			{
				OFFSET 0.019056 -0.420046 -0.034562
				CHANNELS 3 Zrotation Yrotation Xrotation
				JOINT rtoe
				{
					OFFSET -0.034840 -0.062106 0.130323
					CHANNELS 3 Zrotation Yrotation Xrotation
					End Site
					{
						OFFSET 0.000000 0.000000 0.000000
					}
				}
			}
		}
	}
	JOINT lowerback
	{
		OFFSET 0.004439 0.124404 -0.038385
		CHANNELS 3 Zrotation Yrotation Xrotation
		JOINT upperback
		{
			OFFSET 0.004488 0.137956 0.026820
			CHANNELS 3 Zrotation Yrotation Xrotation
			JOINT chest
			{
				OFFSET -0.002265 0.056032 0.002855
				CHANNELS 3 Zrotation Yrotation Xrotation
				JOINT lowerneck
				{
					OFFSET -0.013390 0.211636 -0.033468
					CHANNELS 3 Zrotation Yrotation Xrotation
					JOINT upperneck
					{
						OFFSET 0.010113 0.088937 0.050410
						CHANNELS 3 Zrotation Yrotation Xrotation
						End Site
						{
							OFFSET 0.000000 0.000000 0.000000
						}
					}
				}
				JOINT lclavicle
				{
					OFFSET 0.071702 0.114000 -0.018898
					CHANNELS 3 Zrotation Yrotation Xrotation
					JOINT lshoulder
					{
						OFFSET 0.122921 0.045205 -0.019046
						CHANNELS 3 Zrotation Yrotation Xrotation
						JOINT lelbow
						{
							OFFSET 0.255332 -0.015649 -0.022946
							CHANNELS 3 Zrotation Yrotation Xrotation
							JOINT lwrist
							{
								OFFSET 0.265709 0.012698 -0.007375
								CHANNELS 3 Zrotation Yrotation Xrotation
								End Site
								{
									OFFSET 0.000000 0.000000 0.000000
								}
							}
						}
					}
				}
				JOINT rclavicle
				{
					OFFSET -0.082954 0.112472 -0.023707
					CHANNELS 3 Zrotation Yrotation Xrotation
					JOINT rshoulder
					{
						OFFSET -0.113228 0.046853 -0.008472
						CHANNELS 3 Zrotation Yrotation Xrotation
						JOINT relbow
						{
							OFFSET -0.260127 -0.014369 -0.031269
							CHANNELS 3 Zrotation Yrotation Xrotation
							JOINT rwrist
							{
								OFFSET -0.269108 0.006794 -0.006027
								CHANNELS 3 Zrotation Yrotation Xrotation
								End Site
								{
									OFFSET 0.000000 0.000000 0.000000
								}
							}
						}
					}
				}
			}
		}
	}
}
MOTION
Frames: 14
Frame Time: 0.033333
-0.061451 0.496350 0.987307 -5.681657 0.497003 89.839776 6.944949 6.712500 6.851738 -1.543024 -0.333941 -5.398975 -0.856289 7.799201 -7.721891 0.000000 -0.000000 0.000000 -5.010521 -6.383853 2.541125 1.112289 -7.760216 -0.794394 3.227478 -6.511879 -5.878995 0.000000 -0.000000 0.000000 -2.573100 -0.166383 -5.184230 2.495703 -2.448557 11.622253 0.724233 -1.540969 -4.567135 -0.421924 -14.601360 1.357618 -0.334689 -19.243693 4.382687 -31.192251 -0.348115 7.205674 -57.199413 -8.153563 11.760461 10.798359 -20.582029 -7.771479 2.408492 -12.978546 -7.503100 28.019208 8.355706 5.404496 51.829155 8.597113 7.625132 -9.234073 9.486968 -19.776542 -0.914751 11.951093 -18.340349 
-0.061224 0.497607 0.987124 -5.621399 0.614460 89.835302 7.052259 6.565778 6.676310 -1.514469 -0.276154 -5.325323 -0.737323 7.707673 -7.581770 0.000000 -0.000000 0.000000 -4.896069 -6.466812 2.434585 1.120583 -7.855378 -0.764969 3.412327 -6.393241 -5.851838 0.000000 -0.000000 0.000000 -2.160249 -0.364524 -4.690858 2.224034 -2.345781 10.946531 0.665422 -1.549210 -4.054893 -0.287219 -14.333234 0.996080 -0.530697 -19.401947 4.736558 -30.886126 -0.360454 6.873029 -57.485021 -8.207068 11.472023 10.769522 -20.664576 -7.244412 2.360076 -12.804404 -7.621020 28.016443 8.517434 5.272669 52.028836 8.673579 7.468795 -9.609213 9.624129 -19.576069 -0.662502 11.788584 -18.104485 
-0.060724 0.498443 0.987042 -6.093681 0.625953 89.828177 6.946727 6.668108 6.735252 -1.444830 -0.011448 -5.399488 -0.743186 7.915322 -7.537912 0.000000 -0.000000 0.000000 -4.984332 -6.176639 2.267266 1.240524 -7.810297 -0.715356 3.474005 -6.335256 -5.840892 0.000000 -0.000000 0.000000 -1.825295 -0.279057 -4.518318 2.059591 -2.114454 10.890383 0.541919 -1.435927 -4.094920 -0.256681 -14.265324 0.619934 -0.646744 -19.464741 4.982241 -30.765624 -0.436889 6.869047 -57.694292 -8.209451 11.403638 10.853937 -20.792940 -7.145885 2.290995 -12.849124 -7.576317 28.124452 8.604327 5.403171 52.028017 8.712997 7.306981 -9.814790 9.637175 -19.739789 -0.719520 11.927470 -18.008111 
-0.061192 0.503703 0.987203 -6.453606 0.681785 90.548178 6.892645 6.479253 5.397737 -1.452616 0.270853 -4.900435 -0.556867 8.226072 -7.334157 0.000000 -0.000000 0.000000 -4.606943 -5.162473 0.745379 0.973506 -8.177162 -0.091542 3.194526 -6.554281 -5.734227 0.000000 -0.000000 0.000000 -1.944316 -0.204665 -3.851159 2.157145 -1.902439 9.773581 0.729507 -1.340335 -4.131088 -0.521027 -14.331812 0.875438 -0.301664 -19.347373 4.551014 -30.498702 -0.518807 6.640382 -58.080791 -8.167768 12.000946 10.935006 -20.704380 -7.592598 2.149109 -12.984267 -7.951930 27.996165 8.817576 5.219773 52.188020 8.619205 7.501209 -9.850832 9.278756 -19.763296 -0.351443 12.259464 -18.322836 
-0.061283 0.504401 0.987324 -6.413890 0.678931 90.593603 6.897130 6.447654 5.302910 -1.479741 0.256616 -4.910543 -0.545489 8.232063 -7.285538 0.000000 -0.000000 0.000000 -4.585002 -5.135526 0.653825 0.960195 -8.232816 -0.078832 3.206458 -6.557737 -5.687027 0.000000 -0.000000 0.000000 -1.956506 -0.255726 -3.695529 2.129099 -1.885912 9.547175 0.761243 -1.351186 -4.056501 -0.534780 -14.300976 0.862077 -0.332718 -19.236902 4.612502 -30.433535 -0.539580 6.677870 -58.142070 -8.170896 12.055591 10.960646 -20.772021 -7.492732 2.301410 -12.947920 -8.138056 27.932969 8.844760 5.225648 52.292396 8.640621 7.587962 -9.888056 9.266045 -19.676719 -0.346187 12.194666 -18.482270 
-0.061452 0.505338 0.987435 -6.361167 0.630735 90.659621 6.848155 6.437682 5.154692 -1.506802 0.282276 -4.887141 -0.541666 8.226144 -7.290699 0.000000 -0.000000 0.000000 -4.636073 -5.157352 0.513239 0.992598 -8.325644 -0.021017 3.264191 -6.616182 -5.729338 0.000000 -0.000000 0.000000 -1.981361 -0.250341 -3.669061 2.080661 -1.888750 9.503870 0.752752 -1.426511 -3.972908 -0.457931 -14.237394 0.826254 -0.238482 -19.156741 4.611125 -30.330828 -0.600946 6.754018 -58.183660 -8.215763 12.059022 10.958524 -20.840876 -7.447358 2.312733 -13.057289 -8.293093 27.878038 8.900824 5.268801 52.455062 8.706558 7.687821 -9.993016 9.283894 -19.602783 -0.273523 12.135518 -18.646741 
-0.061617 0.505173 0.987581 -6.043665 0.613077 90.558091 6.874258 6.458652 5.257252 -1.489182 0.127510 -4.997744 -0.646297 8.042869 -7.288676 0.000000 -0.000000 0.000000 -4.668791 -5.564775 0.821789 1.066351 -8.218456 -0.313267 3.314405 -6.616801 -5.784075 0.000000 -0.000000 0.000000 -2.000823 -0.326466 -3.754150 2.066599 -2.046940 9.860541 0.731970 -1.519430 -4.028761 -0.201863 -14.143619 0.482515 -0.353521 -19.124734 4.775104 -30.335261 -0.579746 6.757469 -58.209661 -8.216534 11.913499 10.966248 -20.938355 -7.350053 2.176922 -13.103252 -8.119798 27.922107 8.821623 5.253734 52.471762 8.779746 7.608427 -10.063006 9.422969 -19.599890 -0.189435 12.063574 -18.487739 
-0.060984 0.504502 0.987678 -5.942942 0.581204 90.569560 6.773041 6.497113 5.475239 -1.441929 0.143660 -5.372840 -0.693393 7.890727 -7.246664 0.000000 -0.000000 0.000000 -4.847813 -5.690659 1.069686 1.272965 -8.048094 -0.640029 3.467985 -6.674455 -5.774608 0.000000 -0.000000 0.000000 -1.738003 -0.364589 -4.155575 1.949761 -2.113218 10.272381 0.507302 -1.539856 -3.913580 -0.010084 -14.066916 0.258725 -0.442836 -19.174848 4.855591 -30.426047 -0.550447 6.798486 -58.160281 -8.201872 11.824375 11.006126 -21.175331 -7.104982 2.164593 -12.907800 -7.760423 27.924515 8.717033 5.284760 52.508450 8.860611 7.600326 -10.331069 9.954251 -19.596131 -0.262940 11.702419 -18.083536 
-0.061014 0.505496 0.987696 -5.489005 0.533130 90.632724 6.752075 6.491607 5.203303 -1.437563 -0.110728 -5.311748 -0.799374 7.715383 -7.197904 0.000000 -0.000000 0.000000 -4.889192 -5.929172 1.145775 1.339515 -8.119112 -0.886529 3.414898 -6.770066 -5.811215 0.000000 -0.000000 0.000000 -1.836711 -0.560384 -3.979400 1.941739 -2.287386 10.044824 0.570445 -1.635022 -3.801810 -0.090932 -14.074487 -0.006176 -0.396912 -19.157488 5.044553 -30.257092 -0.556136 6.844537 -58.324752 -8.431104 11.839957 10.830650 -20.891416 -6.900637 2.258654 -13.073040 -8.077217 27.960080 8.723796 5.233949 52.455408 9.000416 7.548188 -10.002905 9.388829 -19.618021 -0.085651 12.290161 -18.572298 
-0.061017 0.506340 0.987823 -5.435053 0.534645 90.706519 6.739688 6.507900 5.118404 -1.416826 -0.176828 -5.437832 -0.805942 7.688233 -7.076979 0.000000 -0.000000 0.000000 -4.863870 -6.000315 1.054488 1.335727 -8.068977 -0.949705 3.438461 -6.814468 -5.792921 0.000000 -0.000000 0.000000 -1.789449 -0.507520 -3.861416 1.920143 -2.289262 9.910837 0.548345 -1.709258 -3.763104 -0.078418 -14.162313 -0.135531 -0.353868 -19.122621 5.056038 -30.236273 -0.548829 6.784208 -58.322752 -8.492540 11.858956 10.690732 -20.810275 -6.866575 2.441923 -13.064354 -8.346528 27.971047 8.614777 5.204219 52.451870 9.062122 7.603281 -9.923957 9.478091 -19.565987 -0.202951 12.399440 -18.639789 
-0.061128 0.507047 0.988030 -5.483885 0.484409 90.761316 6.697925 6.509270 5.065588 -1.468770 -0.123841 -5.470466 -0.834615 7.688723 -7.125713 0.000000 -0.000000 0.000000 -4.917584 -6.028523 0.973742 1.374419 -8.071904 -1.014517 3.537470 -6.754335 -5.804186 0.000000 -0.000000 0.000000 -1.814672 -0.511996 -3.769570 1.863687 -2.199902 9.788166 0.542700 -1.745029 -3.729581 -0.012842 -14.127934 -0.205990 -0.377804 -19.011125 5.163563 -30.325718 -0.521878 6.852336 -58.225302 -8.508705 11.774137 10.762773 -20.893071 -6.791352 2.502906 -13.231796 -8.321189 28.001555 8.655340 5.238049 52.540569 9.093599 7.683455 -10.006619 9.398286 -19.381916 -0.233460 12.592289 -18.514849 
-0.061251 0.507353 0.988013 -5.458171 0.502341 90.840865 6.739832 6.622393 5.008952 -1.509530 -0.168068 -5.587455 -0.855816 7.660416 -7.063625 0.000000 -0.000000 0.000000 -4.892405 -6.076650 0.955731 1.421200 -7.997798 -1.174550 3.517978 -6.826064 -5.804039 0.000000 -0.000000 0.000000 -1.745724 -0.524080 -3.490088 1.799754 -2.144438 9.410622 0.521826 -1.736195 -3.804428 0.137914 -14.124215 -0.316286 -0.561350 -18.877667 5.397846 -30.270212 -0.291737 6.772520 -58.357724 -8.351065 11.865321 10.891068 -21.096078 -6.494639 2.746840 -13.119853 -8.296772 27.866495 8.421944 5.172205 52.793148 8.970190 7.908150 -10.152752 9.671867 -19.032790 -0.239321 12.267477 -18.333817 
-0.061435 0.508390 0.988114 -5.444813 0.497625 90.853151 6.757442 6.716850 4.877264 -1.522994 -0.266969 -5.509541 -0.848266 7.631408 -7.043679 0.000000 -0.000000 0.000000 -4.861034 -6.059440 0.884865 1.412148 -8.028598 -1.184338 3.482194 -6.833337 -5.754498 0.000000 -0.000000 0.000000 -1.779835 -0.496354 -3.338848 1.822587 -2.111247 9.411859 0.549306 -1.744504 -3.811334 0.100435 -14.139602 -0.334942 -0.578316 -18.804225 5.344149 -30.323945 -0.363174 6.746526 -58.404491 -8.259259 12.128650 11.073913 -21.175209 -6.292366 3.397358 -13.146526 -7.902309 27.879662 8.518861 5.117263 52.796641 8.945222 7.945543 -10.155360 9.662858 -19.049350 -0.555330 12.093376 -18.323989 
-0.061478 0.509052 0.988069 -5.465888 0.501003 90.954800 6.722691 6.396553 4.629212 -1.531452 -0.002213 -5.270619 -0.806686 7.710699 -7.173712 0.000000 -0.000000 0.000000 -4.828040 -5.991574 0.708677 1.410802 -8.072332 -1.180096 3.499499 -6.898758 -5.747664 0.000000 -0.000000 0.000000 -1.693245 -0.475581 -3.011893 1.765902 -2.064656 8.932343 0.507154 -1.733894 -3.812796 0.086019 -14.194364 -0.362548 -0.653081 -18.823758 5.528902 -30.273950 -0.157170 6.671989 -58.495118 -8.072605 12.374047 11.258297 -21.339023 -5.880878 3.846321 -13.356319 -7.884156 27.779023 8.367172 5.127323 52.938549 8.837835 8.141515 -10.017311 9.773156 -18.717499 -0.723241 11.943052 -18.461423 
